<?xml version="1.0" standalone="no"?>
<!DOCTYPE svg PUBLIC "-//W3C//DTD SVG 20010904//EN"
 "http://www.w3.org/TR/2001/REC-SVG-20010904/DTD/svg10.dtd">
<svg version="1.0" xmlns="http://www.w3.org/2000/svg"
 width="908.000000pt" height="824.000000pt" viewBox="0 0 908.000000 824.000000"
 preserveAspectRatio="xMidYMid meet">

<g transform="translate(0.000000,824.000000) scale(0.100000,-0.100000)"
fill="#000000" stroke="none">
<path d="M3045 4599 c-272 -39 -501 -209 -619 -460 -69 -145 -71 -163 -71
-569 l0 -365 32 -95 c89 -264 293 -457 568 -537 56 -17 154 -18 1370 -21 1408
-3 1394 -4 1538 48 206 76 390 254 468 454 55 142 61 202 57 563 -4 304 -6
334 -27 403 -82 274 -296 483 -576 562 l-80 23 -1300 1 c-715 1 -1327 -2
-1360 -7z m320 -616 c101 -35 187 -113 233 -211 24 -50 27 -69 27 -162 0 -94
-3 -111 -28 -161 -65 -134 -188 -218 -332 -227 -180 -11 -346 101 -400 273
-25 81 -18 201 18 278 83 182 296 275 482 210z m2195 16 c237 -38 383 -275
311 -506 -96 -309 -507 -370 -694 -103 -52 74 -70 142 -65 243 3 63 10 96 32
143 51 112 169 203 287 223 30 5 56 9 59 10 3 0 34 -4 70 -10z"/>
</g>
</svg>
